M48
;GenerationSoftware,Autodesk,EAGLE,9.4.2*%
;CreationDate,2019-11-11T10:59:10Z*%
FMAT,2
ICI,OFF
METRIC,TZ,000.000
T1C1.016
%
G90
M71
T1
X16138Y11054
X18484Y12026
X20831Y12998
X23177Y13970
X25524Y14942
X27871Y15914
X30217Y16886
X32564Y17858
X34911Y18830
X37257Y19802
X30544Y30544
X32340Y32340
X34136Y34136
X35932Y35932
X37728Y37728
X39524Y39524
X41320Y41320
X43116Y43116
X44912Y44912
X46708Y46708
X12238Y12238
X14034Y14034
X15830Y15830
X17626Y17626
X19422Y19422
X21218Y21218
X23014Y23014
X24810Y24810
X26606Y26606
X28402Y28402
X7620Y35560
X7620Y38100
X7620Y40640
X7620Y43180
X7620Y45720
X7620Y48260
X7620Y50800
X7620Y53340
X7620Y55880
X7620Y58420
X7620Y10160
X7620Y12700
X7620Y15240
X7620Y17780
X7620Y20320
X7620Y22860
X7620Y25400
X7620Y27940
X7620Y30480
X7620Y33020
X33020Y7620
X35560Y7620
X38100Y7620
X40640Y7620
X43180Y7620
X45720Y7620
X48260Y7620
X50800Y7620
X53340Y7620
X55880Y7620
X7620Y7620
X10160Y7620
X12700Y7620
X15240Y7620
X17780Y7620
X20320Y7620
X22860Y7620
X25400Y7620
X27940Y7620
X30480Y7620
X39508Y20877
X41855Y21849
X44202Y22821
X46548Y23793
X48895Y24765
X51242Y25737
X53588Y26709
X55935Y27681
X58282Y28653
X60628Y29625
X10989Y16401
X11961Y18748
X12933Y21095
X13905Y23441
X14877Y25788
X15849Y28135
X16821Y30481
X17793Y32828
X18765Y35175
X19737Y37521
X20882Y39823
X21854Y42170
X22826Y44517
X23798Y46863
X24770Y49210
X25742Y51556
X26714Y53903
X27686Y56250
X28658Y58596
X29630Y60943
X58420Y7620
X60960Y7620
X63500Y7620
X66040Y7620
X68580Y7620
X7620Y60960
X7620Y63500
X7620Y66040
X7620Y68580
X7620Y71120
M30