M48
;GenerationSoftware,Autodesk,EAGLE,9.4.2*%
;CreationDate,2019-11-08T15:17:43Z*%
FMAT,2
ICI,OFF
METRIC,TZ,000.000
T5C0.350
T4C0.650
T3C0.813
T2C1.000
T1C3.000
%
G90
M71
T1
X4445Y-63500
X99060Y-36830
X99060Y-63500
X4445Y-36830
X51435Y-36830
X51435Y-63500
X99060Y-3810
X99060Y-30480
X4445Y-3810
X51435Y-3810
X4445Y-30480
X51435Y-30480
X51435Y2540
X4445Y2540
X51435Y29210
X4445Y29210
X99060Y2540
X99060Y29210
T2
X46355Y-29210
X46355Y-36830
X46355Y-39370
X46355Y-41910
X46355Y-44450
X46355Y-46990
X46355Y-49530
X46355Y-62230
X46355Y-52070
X46355Y-54610
X46355Y-57150
X46355Y-59690
X46355Y-26670
X46355Y-24130
X46355Y-21590
X46355Y-19050
X46355Y-16510
X46355Y-13970
X46355Y-11430
X46355Y-8890
X46355Y-6350
X46355Y-3810
X46355Y3810
X46355Y6350
X46355Y8890
X46355Y11430
X46355Y13970
X46355Y16510
X46355Y19050
X46355Y21590
X46355Y24130
X46355Y26670
X46355Y29210
T3
X22225Y20320
X22225Y12700
X22225Y10160
X29845Y10160
X29845Y12700
X29845Y15240
X29845Y17780
X29845Y22860
X29845Y25400
X9525Y25400
X9525Y22860
X9525Y20320
X9525Y12700
X9525Y10160
X17145Y10160
X17145Y12700
X17145Y15240
X17145Y17780
X17145Y22860
X17145Y25400
X73660Y-63500
X71120Y-63500
X68580Y-63500
X66040Y-63500
X63500Y-63500
X60960Y-63500
X58420Y-63500
X55880Y-63500
X17145Y-40640
X17145Y-43180
X17145Y-48260
X17145Y-50800
X17145Y-53340
X17145Y-55880
X55880Y2540
X58420Y2540
X60960Y2540
X63500Y2540
X66040Y2540
X68580Y2540
X71120Y2540
X73660Y2540
X22225Y22860
X22225Y25400
X42545Y25400
X42545Y22860
X42545Y17780
X42545Y15240
X42545Y12700
X42545Y10160
X34925Y10160
X34925Y12700
X34925Y20320
X76200Y-30480
X78740Y-30480
X81280Y-30480
X83820Y-30480
X86360Y-30480
X88900Y-30480
X91440Y-30480
X93980Y-30480
X34925Y-7620
X34925Y-10160
X34925Y-12700
X34925Y-20320
X34925Y-22860
X42545Y-22860
X42545Y-20320
X42545Y-17780
X42545Y-15240
X42545Y-10160
X42545Y-7620
X22225Y-7620
X22225Y-10160
X22225Y-12700
X22225Y-20320
X22225Y-22860
X29845Y-22860
X29845Y-20320
X29845Y-17780
X29845Y-15240
X29845Y-10160
X29845Y-7620
X9525Y-7620
X9525Y-10160
X9525Y-12700
X9525Y-20320
X9525Y-22860
X17145Y-22860
X17145Y-20320
X17145Y-17780
X17145Y-15240
X17145Y-10160
X17145Y-7620
X9525Y-55880
X9525Y-53340
X9525Y-45720
X9525Y-43180
X9525Y-40640
X29845Y-40640
X29845Y-43180
X29845Y-48260
X29845Y-50800
X29845Y-53340
X29845Y-55880
X22225Y-55880
X22225Y-53340
X22225Y-45720
X55880Y-30480
X58420Y-30480
X60960Y-30480
X63500Y-30480
X66040Y-30480
X68580Y-30480
X71120Y-30480
X73660Y-30480
X34925Y22860
X34925Y25400
X93980Y2540
X91440Y2540
X88900Y2540
X86360Y2540
X83820Y2540
X81280Y2540
X78740Y2540
X76200Y2540
X22225Y-43180
X76200Y-63500
X78740Y-63500
X81280Y-63500
X83820Y-63500
X86360Y-63500
X88900Y-63500
X91440Y-63500
X93980Y-63500
X34925Y-40640
X34925Y-43180
X34925Y-45720
X34925Y-53340
X34925Y-55880
X42545Y-55880
X42545Y-53340
X42545Y-50800
X42545Y-48260
X42545Y-43180
X42545Y-40640
X22225Y-40640
T4
X80010Y-10160
X82550Y-20320
X67310Y-10160
X69850Y-10160
X72390Y-10160
X74930Y-10160
X77470Y-10160
X67310Y12700
X82550Y-10160
X80010Y-20320
X77470Y-20320
X74930Y-20320
X72390Y-20320
X69850Y-20320
X67310Y-20320
X82550Y12700
X67310Y22860
X69850Y22860
X72390Y22860
X74930Y22860
X77470Y22860
X67310Y-53340
X69850Y-53340
X72390Y-53340
X74930Y-53340
X77470Y-53340
X80010Y-53340
X82550Y-43180
X80010Y-43180
X77470Y-43180
X74930Y-43180
X72390Y-43180
X69850Y-43180
X67310Y-43180
X82550Y-53340
X80010Y22860
X82550Y22860
X80010Y12700
X77470Y12700
X74930Y12700
X72390Y12700
X69850Y12700
T5
X63500Y-54610
X60960Y-49530
X58420Y-46990
X55880Y-44450
X63500Y-21590
X60960Y-16510
X58420Y-13970
X55880Y-11430
X63500Y11430
X60960Y16510
X58420Y19050
X55880Y21590
M30